<svg xmlns="http://www.w3.org/2000/svg" width="512" height="512" viewBox="0 0 512 512">
  <defs>
    <linearGradient id="bg" x1="0" y1="0" x2="1" y2="1">
      <stop offset="0%" stop-color="#3b82f6"/>
      <stop offset="100%" stop-color="#1d4ed8"/>
    </linearGradient>
    <linearGradient id="receipt" x1="0.5" y1="0" x2="0.5" y2="1">
      <stop offset="0%" stop-color="#ffffff"/>
      <stop offset="100%" stop-color="#f1f5f9"/>
    </linearGradient>
    <filter id="shadow" x="-10%" y="-10%" width="130%" height="130%">
      <feDropShadow dx="0" dy="5" stdDeviation="10" flood-color="#0f172a" flood-opacity="0.2"/>
    </filter>
  </defs>
  <rect width="512" height="512" rx="92" fill="url(#bg)"/>
  <path d="M102,61 H410 Q451,61 451,102 V431.0 L93.5,431.0 L126.0,451.0 L158.5,431.0 L191.0,451.0 L223.5,431.0 L256.0,451.0 L288.5,431.0 L321.0,451.0 L353.5,431.0 L386.0,451.0 L418.5,431.0 L451.0,451.0  V102 Q61,61 102,61 Z" fill="url(#receipt)" filter="url(#shadow)"/>
  <line x1="131.2" y1="131.2" x2="275.5" y2="131.2" stroke="#cbd5e1" stroke-width="6.144" stroke-linecap="round"/>
  <line x1="333.99999999999994" y1="131.2" x2="380.79999999999995" y2="131.2" stroke="#cbd5e1" stroke-width="6.144" stroke-linecap="round"/>
  <line x1="131.2" y1="170.20000000000002" x2="228.7" y2="170.20000000000002" stroke="#e2e8f0" stroke-width="6.144" stroke-linecap="round"/>
  <line x1="349.59999999999997" y1="170.20000000000002" x2="380.79999999999995" y2="170.20000000000002" stroke="#e2e8f0" stroke-width="6.144" stroke-linecap="round"/>
  <text x="256" y="281.6" text-anchor="middle" dominant-baseline="central" font-family="system-ui,-apple-system,sans-serif" font-size="164" font-weight="800" fill="#1e40af">S</text>
  <line x1="131.2" y1="341.8" x2="380.79999999999995" y2="341.8" stroke="#cbd5e1" stroke-width="4.9152000000000005" stroke-linecap="round" stroke-dasharray="8 5"/>
  <line x1="267.7" y1="373" x2="380.79999999999995" y2="373" stroke="#1e40af" stroke-width="8.6016" stroke-linecap="round"/>
</svg>